<svg id="Layer_1" data-name="Layer 1" xmlns="http://www.w3.org/2000/svg" viewBox="0 0 575 257.2"><defs><style>.cls-1{fill:#de742e;}.cls-1,.cls-2,.cls-3{stroke:#fff;stroke-miterlimit:10;stroke-width:0.75px;}.cls-2{fill:#e79e3e;}.cls-3{fill:#df7a2e;}</style></defs><title>logoo</title><ellipse class="cls-1" cx="329.74" cy="204.47" rx="53.58" ry="52.35"/><ellipse class="cls-2" cx="329.74" cy="52.73" rx="53.58" ry="52.35"/><path class="cls-2" d="M272.33,46.2q0,11.37-9.95,17.69-6.22,4-15.82,4a60.1,60.1,0,0,1-9.22-.82V100.3a14.07,14.07,0,0,0,.24,3.4,3.1,3.1,0,0,0,2.63,2,50.75,50.75,0,0,0,6.71.47c.88,0,1.32.27,1.32.82q0,1.17-1.68,1.17H219c-2.39,0-3.59-.39-3.59-1.17,0-.55.84-.82,2.51-.82,3.76,0,5.91-.36,6.47-1.06q1-.46,1.08-2.34V33.56q0-3.63-2-4.45a13,13,0,0,0-4.2-.47h-2c-1.19,0-1.79-.31-1.79-.94s1.11-1.05,3.35-1.05h26.37q13.65,0,20,4.68Q272.33,36.6,272.33,46.2Zm-12.58.12q0-17.68-15.1-17.68-5,0-6.59,1.65c-.48.47-.72,1.69-.72,3.65V65.29a17.37,17.37,0,0,0,2.15.12A25,25,0,0,0,252.92,62Q259.75,57.74,259.75,46.32Z" transform="translate(-13.52 -15.06)"/><path class="cls-3" d="M94.3,261.58c0,.67-.6,1-1.8,1a17.49,17.49,0,0,1-2.15-.12L75.13,262l-15.22.46a12.74,12.74,0,0,1-1.8.12c-1.6,0-2.39-.41-2.39-1.22S56.79,260,59,260q10.55-.12,10.55-2.07a8.26,8.26,0,0,0-.25-.92l-1-3.09-.61-1.64q-1.08-3.63-5.27-16.06H36.77Q29.59,255,29.59,257.78a1.8,1.8,0,0,0,1.44,2q.36.12,6,.47,3.48.12,3.48,1.17t-3.12,1.17q-5.51,0-12.82-.47c-1.2-.07-2.44-.11-3.72-.11a17.43,17.43,0,0,0-3.71.39,8.13,8.13,0,0,1-1.56.19c-1.12,0-1.68-.35-1.68-1.06s1.26-1.09,3.78-1.17a11.86,11.86,0,0,0,5.45-1.12,6.69,6.69,0,0,0,2.64-3.81Q41.17,212.18,50.85,186a13.39,13.39,0,0,1,1.12-3.1l.51-2.14q.36-1.29,1-1.29c.24,0,.44.23.6.7q1.55,4.58,7.07,19.09,4.3,11.36,21.45,57A5.56,5.56,0,0,0,85,259.63q1.5.72,6.18.84C93.26,260.55,94.3,260.92,94.3,261.58Zm-32.59-28-6.45-17.41L49.5,199.9q-5,12.93-12,33.64Z" transform="translate(-13.52 -15.06)"/><path class="cls-3" d="M148.59,200.52q0,11.35-10,17.68-6.24,4-15.82,4a59,59,0,0,1-9.23-.82v33.26a13.9,13.9,0,0,0,.24,3.39,3.12,3.12,0,0,0,2.64,2,50.58,50.58,0,0,0,6.71.46c.88,0,1.32.28,1.32.82,0,.79-.56,1.17-1.68,1.17H95.26c-2.4,0-3.6-.38-3.6-1.17,0-.54.84-.82,2.52-.82,3.76,0,5.91-.35,6.47-1.05.64-.32,1-1.1,1.08-2.35V187.88q0-3.63-2-4.46A12.93,12.93,0,0,0,95.5,183h-2c-1.2,0-1.8-.31-1.8-.94s1.12-1,3.36-1h26.36q13.67,0,20,4.69Q148.58,190.92,148.59,200.52Zm-12.59.11Q136,183,120.9,183q-5,0-6.59,1.65c-.48.48-.72,1.69-.72,3.65v31.36a19.93,19.93,0,0,0,2.16.11,25,25,0,0,0,13.42-3.42Q136,212.07,136,200.63Z" transform="translate(-13.52 -15.06)"/><path class="cls-3" d="M209,200.52q0,11.35-9.94,17.68-6.24,4-15.82,4a58.88,58.88,0,0,1-9.23-.82v33.26a13.9,13.9,0,0,0,.24,3.39,3.12,3.12,0,0,0,2.64,2,50.47,50.47,0,0,0,6.71.46c.88,0,1.32.28,1.32.82,0,.79-.56,1.17-1.68,1.17H155.66c-2.4,0-3.6-.38-3.6-1.17,0-.54.84-.82,2.52-.82q5.63,0,6.47-1.05c.64-.32,1-1.1,1.08-2.35V187.88q0-3.63-2-4.46a13,13,0,0,0-4.19-.47h-2c-1.2,0-1.8-.31-1.8-.94s1.12-1,3.36-1h26.36q13.66,0,20,4.69Q209,190.92,209,200.52Zm-12.58.11q0-17.67-15.1-17.68-5,0-6.59,1.65c-.48.48-.72,1.69-.72,3.65v31.36a19.93,19.93,0,0,0,2.16.11,25,25,0,0,0,13.42-3.42Q196.4,212.07,196.4,200.63Z" transform="translate(-13.52 -15.06)"/><path class="cls-3" d="M280.88,258.83q0,4.92-8.39,4.92a16.81,16.81,0,0,1-14.62-7.61,17.92,17.92,0,0,1-2.93-6.32q-.66-3-2-15.46-.72-7.49-4.91-10.6c-2.8-2.06-7.35-3.18-13.66-3.33v36.88c0,1.57,1.27,2.54,3.83,2.93.72.08,2.56.16,5.51.23,1,0,1.56.32,1.56.94s-.68,1-2,1H215.09c-1.75,0-2.63-.35-2.63-1,0-.54,1.15-.86,3.47-.94,3.76-.07,5.79-.54,6.11-1.4.32-.39.48-1.91.48-4.57V189.86q0-4.68-1-5.62t-6.17-1.05c-2,0-3-.35-3-1.06S213,181,214.25,181a7.22,7.22,0,0,1,1.08.12l15.94.35q2.4,0,6.71-.15c3.2-.21,5.43-.32,6.71-.32q11.15,0,17.68,4.86A15.57,15.57,0,0,1,268.9,199a16.55,16.55,0,0,1-6.71,13.52q-6.72,5.32-18.22,6.27c-.72.07-1.12.19-1.19.35,0,.31.39.47,1.19.47q12.59,2.12,17.32,8.63t6.29,23.54q1,9.63,6.71,9.63c1.2,0,1.8-.23,1.8-.7a.35.35,0,0,0-.12-.24,5.26,5.26,0,0,1-.6-2.1q0-2.46,2.64-2.46C279.92,255.91,280.88,256.88,280.88,258.83Zm-24.8-58.66q0-16.75-14.86-16.75-4,0-5.39,1.06c-1,.7-1.44,2-1.44,3.74V218q11.51.1,16.59-4.1T256.08,200.17Z" transform="translate(-13.52 -15.06)"/><path class="cls-2" d="M472.27,98.78q0,3-.36,10.07h-1.32c-.48,0-1.63-.08-3.47-.23s-3.9-.24-6.21-.24L411.15,108q-2,0-2-1,0-.83,3.24-1,4.54-.24,5.45-1c.6-.51.9-2,.9-4.39V34.73q0-4.33-.9-5c-.6-.47-2.73-.7-6.41-.7q-2.28,0-2.28-1.29,0-1.05,1.44-1.05h1.08q4,.34,15.7.35c.72,0,2.12-.06,4.19-.18s3.8-.17,5.16-.17H438q2.16,0,2.16,1.17a.82.82,0,0,1-.66.88,31.5,31.5,0,0,1-4.13.29q-3.48.12-4.14,1.11t-.66,6.15v69.09q3.24.12,9,.12,14,0,19.78-1.41t7.78-5.27a25.49,25.49,0,0,0,2.4-10.42c.08-1,.54-1.52,1.38-1.52,1,0,1.46.58,1.38,1.75V98.78Z" transform="translate(-13.52 -15.06)"/><path class="cls-2" d="M508.1,107c0,.66-.48,1-1.45,1h-1.2q-.72-.34-16.36-.35-3,0-6,.24c-1.05.08-2.65.11-4.82.11q-1.56,0-1.56-1c0-.62,1-1,3.12-1q4.79-.12,5.63-1.12t.84-6.75V36.27c0-3.83-.21-6-.61-6.46C485.19,29,483,28.56,479,28.4c-1.53-.06-2.3-.34-2.3-.82s.49-.93,1.46-.93h16.36c1.21,0,3.56,0,7,.12l4.61-.12c1.29,0,1.94.33,1.94,1s-1.8,1-5.41,1.11c-2.05.07-3.29.43-3.74,1s-.68,2.27-.68,4.92V97.26q0,6.67.61,7.26,1.33,1.29,7.88,1.52C507.65,106,508.1,106.38,508.1,107Z" transform="translate(-13.52 -15.06)"/><path class="cls-2" d="M588.15,27.82q0,1.17-3,1.05h-4.79c-1.28,0-2,.22-2.28.65a11.57,11.57,0,0,0-.36,3.91v67.36c0,4.13,0,6.54-.12,7.25s-.32,1-.71,1-1-.43-1.68-1.3L559.9,85.88q-13.32-19.09-32.39-47.67v65.37a2.09,2.09,0,0,0,1.82,1.94,50.39,50.39,0,0,0,8.11.52c1,0,1.57.32,1.57.94,0,.78-1,1.17-3.11,1.17q-1.08,0-6.83-.35-1.92-.12-3.72-.12l-2.09.24q-2.22.22-6.77.23h-1.2q-2.76,0-2.76-1.05c0-.71.8-1.06,2.4-1.06q7.07-.12,8.21-.88t1.13-5V42.36q0-9.73-4.07-12.2Q518.28,29,513.37,29q-3.12,0-3.12-1.23t1.8-1.11q2.4,0,6.11.23l4,.24,3.35-.12q4,0,7.67-.35L574.49,87V34.85c0-2.42,0-3.89-.12-4.4a1.61,1.61,0,0,0-1-1.17q-.84-.41-5.76-.41c-2.87,0-4.31-.35-4.31-1.05s1-1.17,2.88-1.17h19.29Q588.15,26.65,588.15,27.82Z" transform="translate(-13.52 -15.06)"/></svg>